<mxfile host="app.diagrams.net" modified="2024-05-22T07:23:08.371Z" agent="Mozilla/5.0 (Macintosh; Intel Mac OS X 10_15_7) AppleWebKit/537.36 (KHTML, like Gecko) Chrome/124.0.0.0 Safari/537.36" version="24.4.4" etag="d64ZRz1XSminm-lsfmd3" type="github">
  <diagram name="第 1 页" id="LUDF5sS2zh5uDN5EKnpf">
    <mxGraphModel>
      <root>
        <mxCell id="0" />
        <mxCell id="1" parent="0" />
      </root>
    </mxGraphModel>
  </diagram>
</mxfile>
